<svg width="71" height="78" viewBox="0 0 71 78" fill="none" xmlns="http://www.w3.org/2000/svg">
<path d="M40.8 34.9141C40.4 34.9141 40 34.7141 39.7 34.5141L30.7 25.4141C30.1 24.8141 30.1 23.9141 30.7 23.3141C31.3 22.7141 32.2 22.7141 32.8 23.3141L40.3 30.8141L52.7 0.914113C53 0.114113 53.9 -0.185886 54.7 0.114114C55.5 0.414114 55.8 1.31411 55.5 2.11411L42.2 34.1141C42 34.6141 41.6 34.9141 41.1 35.0141C41 34.9141 40.9 34.9141 40.8 34.9141Z" fill="#103324"/>
<path d="M69.5 16.4141C68.7 16.3141 67.9 16.8141 67.8 17.6141L62.9 47.4141H20.7L15.4 8.01406C14.8 4.61406 12.3 2.41406 9 2.41406H1.5C0.7 2.41406 0 3.11406 0 3.91406C0 4.71406 0.7 5.41406 1.5 5.41406H9C10.8 5.41406 12.1 6.61406 12.4 8.51406L19.6 62.8141C16.6 63.8141 14.5 66.6141 14.5 69.9141C14.5 74.0141 17.9 77.4141 22 77.4141C26.1 77.4141 29.5 74.0141 29.5 69.9141C29.5 68.2141 28.9 66.7141 28 65.4141H49.9C49 66.7141 48.4 68.2141 48.4 69.9141C48.4 74.0141 51.8 77.4141 55.9 77.4141C60 77.4141 63.4 74.0141 63.4 69.9141C63.4 65.8141 60.1 62.4141 55.9 62.4141H22.7L21.1 50.4141H64.3C65 50.4141 65.7 49.9141 65.8 49.1141L70.8 18.1141C70.9 17.3141 70.3 16.6141 69.5 16.4141ZM26.6 69.9141C26.6 72.4141 24.6 74.4141 22.1 74.4141C19.6 74.4141 17.6 72.4141 17.6 69.9141C17.6 67.4141 19.6 65.4141 22.1 65.4141C24.6 65.4141 26.6 67.4141 26.6 69.9141ZM60.4 69.9141C60.4 72.4141 58.4 74.4141 55.9 74.4141C53.4 74.4141 51.4 72.4141 51.4 69.9141C51.4 67.4141 53.4 65.4141 55.9 65.4141C58.4 65.4141 60.4 67.4141 60.4 69.9141Z" fill="#6F6F6F"/>
</svg>
