<svg width="16" height="16" viewBox="0 0 16 16" fill="none" xmlns="http://www.w3.org/2000/svg">
<path d="M4.8 12.8C3.916 12.8 3.208 13.516 3.208 14.4C3.208 15.284 3.916 16 4.8 16C5.684 16 6.4 15.284 6.4 14.4C6.4 13.516 5.684 12.8 4.8 12.8ZM0 0V1.6H1.6L4.476 7.668L3.396 9.628C3.272 9.86 3.2 10.12 3.2 10.4C3.2 11.284 3.916 12 4.8 12H14.4V10.4H5.14C5.028 10.4 4.94 10.312 4.94 10.2C4.94 10.164 4.948 10.132 4.964 10.104L5.68 8.8H11.64C12.24 8.8 12.764 8.468 13.04 7.976L15.9 2.784C15.964 2.672 16 2.54 16 2.4C16 1.956 15.64 1.6 15.2 1.6H3.372L2.612 0H0ZM12.8 12.8C11.916 12.8 11.208 13.516 11.208 14.4C11.208 15.284 11.916 16 12.8 16C13.684 16 14.4 15.284 14.4 14.4C14.4 13.516 13.684 12.8 12.8 12.8Z" fill="#103324"/>
</svg>
