<?xml version="1.0" encoding="UTF-8"?>
<svg width="24px" height="24px" viewBox="0 0 24 24" version="1.1" xmlns="http://www.w3.org/2000/svg" xmlns:xlink="http://www.w3.org/1999/xlink">
    <!-- Generator: Sketch 53.2 (72643) - https://sketchapp.com -->
    <title>close</title>
    <desc>Created with Sketch.</desc>
    <g id="website" stroke="none" stroke-width="1" fill="none" fill-rule="evenodd">
        <path d="M12,0 C5.37321429,0 0,5.37321429 0,12 C0,18.6267857 5.37321429,24 12,24 C18.6267857,24 24,18.6267857 24,12 C24,5.37321429 18.6267857,0 12,0 Z M17.8017857,16.0446429 C17.8821429,16.125 17.925,16.2321429 17.925,16.3446429 C17.925,16.4571429 17.8821429,16.5696429 17.8017857,16.6446429 L16.6446429,17.8071429 C16.5589286,17.8928571 16.4517857,17.9303571 16.3446429,17.9303571 C16.2375,17.9303571 16.125,17.8875 16.0446429,17.8071429 L12,13.7571429 L7.96071429,17.8125 C7.88035714,17.8982143 7.76785714,17.9357143 7.66071429,17.9357143 C7.55357143,17.9357143 7.44107143,17.8928571 7.36071429,17.8125 L6.20357143,16.65 C6.12321429,16.5696429 6.08035714,16.4625 6.08035714,16.35 C6.08035714,16.2375 6.12321429,16.125 6.20357143,16.05 L10.2589286,11.9785714 L6.19285714,7.96071429 C6.02678571,7.79464286 6.02678571,7.52142857 6.19285714,7.35535714 L7.35,6.19285714 C7.43035714,6.1125 7.5375,6.06964286 7.65,6.06964286 C7.7625,6.06964286 7.86964286,6.1125 7.95,6.19285714 L12.0053571,10.1946429 L16.0607143,6.19285714 C16.1410714,6.1125 16.2482143,6.06964286 16.3607143,6.06964286 C16.4732143,6.06964286 16.5803571,6.1125 16.6607143,6.19285714 L17.8178571,7.35535714 C17.9839286,7.52142857 17.9839286,7.79464286 17.8178571,7.96071429 L13.7517857,11.9785714 L17.8017857,16.0446429 Z" id="close" fill="#103324" fill-rule="nonzero"></path>
    </g>
</svg>