<?xml version="1.0" encoding="UTF-8"?>
<svg width="22px" height="22px" viewBox="0 0 22 22" version="1.1" xmlns="http://www.w3.org/2000/svg" xmlns:xlink="http://www.w3.org/1999/xlink">
    <!-- Generator: Sketch 53.2 (72643) - https://sketchapp.com -->
    <title>fb-share</title>
    <desc>Created with Sketch.</desc>
    <g id="website" stroke="none" stroke-width="1" fill="none" fill-rule="evenodd">
        <path d="M15.125,22 L15.125,13.2916667 L17.875,13.2916667 L18.3333333,10.0833333 L15.125,10.0833333 L15.125,8.04038125 C15.125,7.07908208 15.3919333,6.42399083 16.7705358,6.42399083 L18.5286017,6.42319333 L18.5286017,3.45359667 C18.2244746,3.41319 17.1809092,3.32278833 15.9666833,3.32278833 C13.4318158,3.32278833 11.6962863,4.87007125 11.6962863,7.7116325 L11.6962863,10.0833333 L8.70833333,10.0833333 L8.70833333,13.2916667 L11.6962863,13.2916667 L11.6962863,22 L0.916666667,22 C0.410405417,22 5.32907052e-15,21.5895946 5.32907052e-15,21.0833333 L5.32907052e-15,0.916666667 C5.32907052e-15,0.410405417 0.410405417,0 0.916666667,0 L21.0833333,0 C21.5895946,0 22,0.410405417 22,0.916666667 L22,21.0833333 C22,21.5895946 21.5895946,22 21.0833333,22 L15.125,22 Z" id="fb-share" fill="#103324"></path>
    </g>
</svg>