<?xml version="1.0" encoding="UTF-8"?>
<svg width="28px" height="20px" viewBox="0 0 28 20" version="1.1" xmlns="http://www.w3.org/2000/svg" xmlns:xlink="http://www.w3.org/1999/xlink">
    <!-- Generator: Sketch 53.2 (72643) - https://sketchapp.com -->
    <title>google-share</title>
    <desc>Created with Sketch.</desc>
    <g id="website" stroke="none" stroke-width="1" fill="none" fill-rule="evenodd">
        <path d="M27.8666667,8.45433447 L27.8666667,10.7765567 L25.5444444,10.7765567 L25.5444444,13.0987789 L23.2222222,13.0987789 L23.2222222,10.7765567 L20.9,10.7765567 L20.9,8.45433447 L23.2222222,8.45433447 L23.2222222,6.13211225 L25.5444444,6.13211225 L25.5444444,8.45433447 L27.8666667,8.45433447 Z M19.1890215,8.45950722 C20.1567786,14.1031516 16.6593726,19.7388889 9.86944444,19.7388889 C4.41305822,19.7388889 0,15.3258249 0,9.86944444 C0,4.41305242 4.41305822,0 9.86944444,0 C12.534177,0 14.7618558,0.972807917 16.4819838,2.58017467 L13.8031496,5.16028547 C13.0699427,4.4553575 11.7869382,3.63760436 9.86944444,3.63760436 C6.49971422,3.63760436 3.75036567,6.429258 3.75036567,9.86943864 C3.75036567,13.3096135 6.49971422,16.1012671 9.86944444,16.1012671 C13.6981909,16.1012671 15.1745263,13.411948 15.4440376,11.9376678 L10.45,11.9376678 L10.45,8.45433447 L19.1890215,8.45950722 Z" id="google-share" fill="#103324"></path>
    </g>
</svg>