<?xml version="1.0" encoding="UTF-8"?>
<svg width="22px" height="22px" viewBox="0 0 22 22" version="1.1" xmlns="http://www.w3.org/2000/svg" xmlns:xlink="http://www.w3.org/1999/xlink">
    <!-- Generator: Sketch 53.2 (72643) - https://sketchapp.com -->
    <title>insta-grey</title>
    <desc>Created with Sketch.</desc>
    <g id="website" stroke="none" stroke-width="1" fill="none" fill-rule="evenodd">
        <g id="insta-grey" fill="#FFFFFF">
            <path d="M11.001,0.333333333 L10.9976666,0.333333333 C13.8954746,0.333333333 14.2577006,0.346000132 15.3954902,0.397778449 C16.5310576,0.449778991 17.3066212,0.629558641 17.9866283,0.893339167 C18.6888579,1.16556422 19.2821974,1.53001247 19.8755369,2.12335198 C20.4688764,2.71624704 20.8333247,3.31136435 21.1066608,4.01292722 C21.3688858,4.69115651 21.5488877,5.46627569 21.6022216,6.60184307 C21.6533332,7.7396327 21.6666667,8.10319205 21.6666667,11.0001111 C21.6666667,13.8970302 21.6533332,14.2597006 21.6022216,15.3974903 C21.5488877,16.5326132 21.3688858,17.3079546 21.1066608,17.9864061 C20.8333247,18.6877467 20.4688764,19.2828641 19.8755369,19.8757591 C19.2828641,20.4690986 18.6886356,20.8344358 17.987295,21.1068831 C17.3086213,21.3706636 16.5326132,21.5504432 15.3970458,21.6024438 C14.2592562,21.6542221 13.896808,21.6668889 10.9996667,21.6668889 C8.10296982,21.6668889 7.7396327,21.6542221 6.60184307,21.6024438 C5.46649791,21.5504432 4.69115651,21.3706636 4.01248277,21.1068831 C3.31136435,20.8344358 2.71624704,20.4690986 2.1235742,19.8757591 C1.53045691,19.2828641 1.16600867,18.6877467 0.893339167,17.9861839 C0.629780866,17.3079546 0.450001215,16.5328354 0.397778449,15.397268 C0.346222356,14.2594784 0.333333333,13.8970302 0.333333333,11.0001111 C0.333333333,8.10319205 0.346666806,7.73941048 0.397556225,6.60162085 C0.448667868,5.46649791 0.628669743,4.69115651 0.893116942,4.01270499 C1.16645312,3.31136435 1.53090136,2.71624704 2.12424088,2.12335198 C2.71713594,1.53023469 3.31225325,1.16578645 4.01381612,0.893339167 C4.6920454,0.629558641 5.46716459,0.449778991 6.60273197,0.397778449 C7.7405216,0.346000132 8.10408095,0.333333333 11.001,0.333333333 Z M10.0441012,2.25557558 L10.0441012,2.25290888 C8.05608045,2.25513113 7.67474314,2.2684646 6.69073289,2.31290951 C5.65072206,2.36068778 5.08604951,2.53402292 4.71004559,2.68069112 C4.21226263,2.87447091 3.85670337,3.10558443 3.48336615,3.47892166 C3.11002892,3.85225888 2.87847096,4.20781814 2.68513561,4.7056011 C2.53913409,5.08160502 2.3653545,5.64605534 2.31779845,6.68606617 C2.26668681,7.81052233 2.25646448,8.14652583 2.25646448,10.9949999 C2.25646448,13.8434741 2.26668681,14.1812554 2.31779845,15.3057115 C2.36513228,16.3457224 2.53913409,16.9101727 2.68513561,17.2857321 C2.87891541,17.7837373 3.11002892,18.1384077 3.48336615,18.5117449 C3.85670337,18.8850821 4.21226263,19.1161957 4.71004559,19.309531 C5.08627173,19.4555325 5.65072206,19.6293121 6.69073289,19.6773126 C7.81518905,19.7284243 8.15274812,19.7395355 11.001,19.7395355 C13.8490297,19.7395355 14.186811,19.7284243 15.3112671,19.6773126 C16.351278,19.6297566 16.9161727,19.4564214 17.2917322,19.3097532 C17.7897374,19.1164179 18.1441855,18.8853044 18.5175228,18.5119671 C18.89086,18.1388521 19.1224179,17.784404 19.3157533,17.286621 C19.4617548,16.9110616 19.6355344,16.3466112 19.6830904,15.3066004 C19.7342021,14.1821443 19.7453133,13.844363 19.7453133,10.9976666 C19.7453133,8.15097032 19.7342021,7.81318903 19.6830904,6.68873287 C19.6357566,5.64872204 19.4617548,5.08427171 19.3157533,4.70871224 C19.1219735,4.21092928 18.89086,3.85537002 18.5175228,3.4820328 C18.1444078,3.10869558 17.7895152,2.87758206 17.2917322,2.68424671 C16.9157283,2.53824519 16.351278,2.3644656 15.3112671,2.31690955 C14.1865887,2.26579791 13.8490297,2.25557558 11.001,2.25557558 C10.6449963,2.25557558 10.3281041,2.25513113 10.0441012,2.25557558 Z M16.6948371,4.02670514 L16.6948371,4.02626069 C17.4015111,4.02626069 17.9748504,4.5996 17.9748504,5.30627402 C17.9748504,6.01294805 17.4015111,6.58628736 16.6948371,6.58628736 C15.9881631,6.58628736 15.4148238,6.01294805 15.4148238,5.30627402 C15.4148238,4.59937777 15.9881631,4.02670514 16.6948371,4.02670514 Z M11.001,5.52227627 L11.0007778,5.52227627 C14.0259204,5.52227627 16.477946,7.97496849 16.477946,11.0001111 C16.477946,14.0252537 14.0261426,16.4768348 11.001,16.4768348 C7.97585739,16.4768348 5.52316517,14.0252537 5.52316517,11.0001111 C5.52316517,7.97496849 7.97585739,5.52227627 11.001,5.52227627 Z M11.001,7.44451852 C9.03720178,7.44451852 7.44540742,9.03631288 7.44540742,11.0001111 C7.44540742,12.9636871 9.03720178,14.5557037 11.001,14.5557037 C12.964576,14.5557037 14.5565926,12.9636871 14.5565926,11.0001111 C14.5565926,9.03631288 12.964576,7.44451852 11.001,7.44451852 Z" id="Combined-Shape"></path>
        </g>
    </g>
</svg>