<?xml version="1.0" encoding="UTF-8"?>
<svg width="22px" height="12px" viewBox="0 0 22 12" version="1.1" xmlns="http://www.w3.org/2000/svg" xmlns:xlink="http://www.w3.org/1999/xlink">
    <!-- Generator: Sketch 53.2 (72643) - https://sketchapp.com -->
    <title>mail-footer</title>
    <desc>Created with Sketch.</desc>
    <g id="website" stroke="none" stroke-width="1" fill="none" fill-rule="evenodd">
        <path d="M0.701556464,1.286 C1.29800083,1.548 9.56022194,5.18 9.86822189,5.315 C10.1762219,5.45 10.5746662,5.514 10.9755551,5.514 C11.3764439,5.514 11.7748883,5.45 12.0828883,5.315 C12.3908882,5.18 20.6531093,1.548 21.2495537,1.286 C21.8472203,1.023 22.4118869,0 21.3155537,0 L0.636778695,0 C-0.459554491,0 0.1051121,1.023 0.701556464,1.286 Z M21.5269981,3.489 C20.8486649,3.778 12.4984438,7.338 12.0828883,7.516 C11.6673328,7.694 11.3764439,7.715 10.9755551,7.715 C10.5746662,7.715 10.2837774,7.694 9.86822189,7.516 C9.45266639,7.338 1.15011196,3.777 0.471778717,3.488 C-0.00488788556,3.284 1.00266877e-06,3.523 1.00266877e-06,3.707 L1.00266877e-06,11 C1.00266877e-06,11.42 0.691778687,12 1.22222306,12 L20.777776,12 C21.3082204,12 21.999998,11.42 21.999998,11 L21.999998,3.708 C21.999998,3.524 22.0048869,3.285 21.5269981,3.489 Z" id="mail-footer" fill="#4A4A4A" fill-rule="nonzero"></path>
    </g>
</svg>