<?xml version="1.0" encoding="UTF-8"?>
<svg width="24px" height="20px" viewBox="0 0 24 20" version="1.1" xmlns="http://www.w3.org/2000/svg" xmlns:xlink="http://www.w3.org/1999/xlink">
    <!-- Generator: Sketch 53.2 (72643) - https://sketchapp.com -->
    <title>twitter-share</title>
    <desc>Created with Sketch.</desc>
    <g id="website" stroke="none" stroke-width="1" fill="none" fill-rule="evenodd">
        <path d="M23.625,2.27278898 C22.7557821,2.65828008 21.8216791,2.91887367 20.841153,3.03600937 C21.8419277,2.4361657 22.6104687,1.48627336 22.9723298,0.354434062 C22.0358545,0.909892266 20.9985398,1.31326945 19.8944648,1.53066375 C19.0103189,0.588616875 17.7506241,0 16.3565965,0 C13.6796625,0 11.5094995,2.17016789 11.5094995,4.84684594 C11.5094995,5.22677039 11.5523691,5.59664438 11.6349827,5.95142297 C7.60672336,5.74930617 4.0352632,3.81965555 1.64466914,0.887192578 C1.22745164,1.60307437 0.988460156,2.43565875 0.988460156,3.32394398 C0.988460156,5.00549766 1.8441675,6.48906891 3.14469914,7.3582868 C2.35017562,7.33314094 1.60281352,7.11507234 0.949296797,6.752025 C0.948957187,6.77227852 0.948883359,6.79253695 0.948883359,6.81295781 C0.948883359,9.16140094 2.61962367,11.1204253 4.83696773,11.565668 C4.43021414,11.6763806 4.00201594,11.7356302 3.55998727,11.7356302 C3.24765492,11.7356302 2.94401953,11.7052474 2.64806227,11.6487049 C3.26486672,13.5743098 5.05486406,14.9756857 7.17583781,15.0148441 C5.51698875,16.3147901 3.42707203,17.0896556 1.15622719,17.0896556 C0.764992266,17.0896507 0.379161562,17.0667 0,17.02197 C2.14502203,18.3971812 4.69274695,19.1995601 7.42992961,19.1995601 C16.345286,19.1995601 21.220482,11.8139372 21.220482,5.40887977 C21.220482,5.19874523 21.2157619,4.9897132 21.2064743,4.78186242 C22.1534135,4.09847484 22.9752042,3.24478547 23.625,2.27278898 Z" id="twitter-share" fill="#103324"></path>
    </g>
</svg>