<?xml version="1.0" standalone="no"?>
<!DOCTYPE svg PUBLIC "-//W3C//DTD SVG 20010904//EN"
 "http://www.w3.org/TR/2001/REC-SVG-20010904/DTD/svg10.dtd">
<svg version="1.0" xmlns="http://www.w3.org/2000/svg"
 width="560.000000pt" height="560.000000pt" viewBox="0 0 560.000000 560.000000"
 preserveAspectRatio="xMidYMid meet">
<metadata>
Created by potrace 1.11, written by Peter Selinger 2001-2013
</metadata>
<g transform="translate(0.000000,560.000000) scale(0.100000,-0.100000)"
fill="#000000" stroke="none">
<path d="M2570 5555 c-41 -8 -86 -16 -100 -19 -14 -3 -34 -8 -45 -10 -140 -31
-386 -156 -514 -261 -89 -74 -206 -202 -269 -297 -46 -69 -140 -243 -147 -272
-1 -6 -5 -20 -9 -31 -37 -98 -60 -196 -75 -323 -9 -73 -7 -259 4 -317 4 -22 8
-51 10 -65 1 -14 6 -41 11 -60 4 -19 8 -37 9 -40 3 -22 30 -107 35 -115 4 -5
13 -28 20 -50 17 -56 93 -197 153 -283 62 -90 188 -225 264 -283 32 -24 60
-46 63 -50 13 -15 162 -101 220 -127 98 -44 229 -86 335 -107 105 -20 295 -24
410 -9 99 14 180 29 180 34 0 1 8 3 17 5 55 10 252 89 278 111 8 7 26 17 40
22 28 11 167 109 213 150 117 104 208 215 295 357 52 85 135 298 148 381 3 21
8 42 10 45 10 17 19 129 19 254 0 145 -6 215 -26 288 -6 23 -13 53 -15 67 -12
68 -103 281 -156 365 -141 220 -338 400 -563 513 -111 55 -269 107 -390 127
-81 14 -349 13 -425 0z m296 -179 c366 -38 737 -414 859 -870 36 -135 39 -159
39 -301 1 -130 -4 -185 -24 -260 -6 -22 -13 -49 -15 -59 -20 -84 -145 -366
-172 -385 -5 -3 -20 -24 -34 -46 -68 -104 -191 -225 -299 -296 -147 -97 -281
-141 -430 -143 -136 -2 -220 18 -353 83 -268 131 -502 429 -600 761 -43 145
-51 197 -51 335 0 90 10 211 19 224 2 4 7 23 10 42 17 94 105 307 164 395 17
25 31 49 31 55 0 5 5 9 10 9 6 0 10 5 10 11 0 30 163 202 264 278 99 75 233
138 333 157 35 7 166 21 173 18 3 -1 33 -4 66 -8z"/>
<path d="M580 2990 c0 -15 -69 -119 -99 -150 -14 -14 -55 -46 -90 -70 l-64
-43 34 -29 c19 -16 50 -44 69 -62 125 -115 467 -366 500 -366 5 0 10 -4 10 -9
0 -5 8 -11 18 -15 9 -3 44 -21 77 -41 89 -52 315 -161 424 -205 168 -66 403
-139 541 -166 14 -3 41 -9 60 -14 19 -5 51 -11 70 -14 19 -3 46 -8 60 -10 76
-14 127 -20 245 -32 122 -12 154 -13 340 -13 187 0 245 2 335 12 25 3 74 9
110 12 36 4 74 9 85 12 11 2 36 6 55 9 43 5 74 11 200 39 41 9 84 18 95 21 11
2 65 18 120 35 55 16 105 31 110 33 6 2 19 6 30 10 11 5 63 24 115 43 212 77
472 209 675 341 66 43 294 208 305 221 3 3 32 29 65 56 33 28 79 68 103 91
l44 41 -47 27 c-63 37 -154 132 -185 192 -14 27 -26 51 -27 53 -1 2 -32 -24
-68 -57 -35 -34 -93 -84 -127 -113 -35 -28 -65 -55 -68 -59 -3 -3 -54 -43
-115 -88 -60 -45 -114 -85 -120 -89 -90 -71 -364 -232 -535 -315 -82 -40 -316
-136 -345 -143 -5 -1 -37 -10 -70 -20 -33 -10 -64 -20 -70 -21 -5 -1 -47 -11
-92 -23 -45 -12 -96 -23 -115 -25 -18 -3 -33 -5 -33 -6 0 -3 -88 -17 -160 -25
-25 -3 -238 -16 -270 -17 -85 -2 -326 20 -415 38 -14 3 -34 7 -45 9 -17 3 -66
14 -135 30 -92 22 -254 73 -315 99 -16 8 -61 26 -100 41 -94 38 -320 152 -425
215 -47 28 -94 57 -105 63 -11 7 -22 14 -25 17 -3 3 -29 21 -58 39 -30 19 -59
39 -66 45 -6 6 -34 27 -61 46 -28 19 -57 40 -65 47 -8 7 -44 35 -80 63 -72 57
-143 118 -228 197 -57 53 -72 62 -72 43z"/>
<path d="M2528 1285 c-1 -2 -39 -6 -83 -10 -44 -4 -91 -8 -105 -10 -14 -2 -47
-6 -75 -10 -27 -4 -84 -13 -125 -22 -100 -20 -102 -20 -141 -27 -101 -17 -357
-97 -524 -163 -133 -52 -349 -155 -425 -201 -19 -12 -44 -26 -55 -31 -11 -5
-55 -32 -98 -60 -43 -28 -80 -51 -82 -51 -3 0 -25 -15 -49 -32 -24 -18 -56
-42 -72 -53 -46 -33 -223 -174 -245 -196 l-21 -21 51 -34 c76 -51 139 -120
169 -186 15 -32 29 -58 32 -58 3 0 21 15 41 33 20 18 53 46 74 62 20 17 49 40
64 53 14 13 80 63 146 112 499 367 1017 587 1527 647 141 16 447 8 603 -16
178 -28 593 -147 603 -173 2 -4 12 -8 21 -8 10 0 21 -3 25 -7 4 -5 11 -8 14
-9 7 0 97 -39 122 -53 8 -4 58 -30 110 -56 152 -78 388 -226 528 -331 26 -20
60 -45 76 -57 16 -12 34 -27 40 -32 6 -6 45 -38 86 -72 41 -33 85 -70 97 -81
l21 -21 6 23 c17 68 128 206 178 222 10 3 18 10 18 15 0 5 6 9 14 9 24 0 28
18 9 39 -72 77 -358 282 -549 394 -102 59 -355 187 -372 187 -4 0 -18 6 -32
13 -14 7 -52 23 -85 36 -33 13 -69 27 -80 31 -23 10 -98 33 -105 33 -3 0 -21
7 -39 15 -19 7 -42 15 -50 17 -9 2 -43 11 -76 20 -33 9 -76 21 -95 25 -19 5
-46 11 -60 14 -45 11 -234 46 -272 50 -21 3 -53 8 -70 11 -85 15 -677 32 -690
20z"/>
</g>
</svg>
