<?xml version="1.0" encoding="UTF-8"?>
<svg width="188px" height="34px" viewBox="0 0 188 34" version="1.1" xmlns="http://www.w3.org/2000/svg" xmlns:xlink="http://www.w3.org/1999/xlink">
    <!-- Generator: Sketch 53.2 (72643) - https://sketchapp.com -->
    <title>logo-green-horizont</title>
    <desc>Created with Sketch.</desc>
    <g id="website" stroke="none" stroke-width="1" fill="none" fill-rule="evenodd">
        <g id="logo-green-horizont" fill="#103324">
            <g id="logo-footer">
                <path d="M15.5913021,1.17204461 C12.1660681,1.17204461 9.38006809,5.14825279 9.38006809,8.56773234 C9.38006809,11.9875093 12.1660681,15.9637175 15.5913021,15.9637175 C19.0165362,15.9637175 21.8025362,11.9875093 21.8025362,8.56773234 C21.8025362,5.14825279 19.0165362,1.17204461 15.5913021,1.17204461 M15.5913021,17.1354647 C10.8596,17.1354647 7.00989787,13.2918959 7.00989787,8.56773234 C7.00989787,3.84356877 10.8596,0 15.5913021,0 C20.3230043,0 24.1727064,3.84356877 24.1727064,8.56773234 C24.1727064,13.2918959 20.3230043,17.1354647 15.5913021,17.1354647" id="Fill-17"></path>
                <path d="M15.5913021,23.8606691 C9.86142979,23.8606691 4.42615319,21.6834201 0.287514894,17.7298141 C0.287514894,17.7298141 1.05453617,17.2507063 1.27883404,17.0267658 C1.50313191,16.8025279 1.92551489,16.0203717 1.92551489,16.0203717 C5.62121702,19.5504833 10.4747489,22.2910037 15.5913021,22.2910037 C20.7072596,22.2910037 25.5598979,19.5513755 29.2553021,16.0218587 C29.2553021,16.0218587 29.3824936,16.472119 29.8960255,17.0273606 C30.4095574,17.5826022 30.8933021,17.7318959 30.8933021,17.7318959 C26.7546638,21.6840149 21.3205787,23.8606691 15.5913021,23.8606691" id="Fill-19"></path>
                <path d="M28.7199064,34.0548699 C25.1007574,30.8432714 20.4384596,28.278513 15.591183,28.278513 C10.7442043,28.278513 6.08190638,30.8432714 2.46245957,34.0542751 C2.46245957,34.0542751 2.26914043,33.4145725 1.84139574,32.9875093 C1.41365106,32.5598513 0.888502128,32.2862454 0.888502128,32.2862454 C4.94194894,28.6895167 10.1633532,26.7085502 15.591183,26.7085502 C21.0193106,26.7085502 26.2410128,28.6895167 30.2938638,32.2865428 C30.2938638,32.2865428 29.7675234,32.5384387 29.3397787,32.9657993 C28.9114383,33.3931599 28.7199064,34.0548699 28.7199064,34.0548699" id="Fill-21"></path>
            </g>
            <path d="M48,30.6331896 C49.2900851,30.5915539 49.8310213,30.3423346 50.2471489,29.5530409 C50.5384681,28.9713309 50.6215745,28.4312565 50.6632766,26.6447881 L50.6632766,22.0743792 L50.6632766,18.999881 C50.6632766,16.5070929 50.6215745,15.7177993 50.4553617,15.0944535 C50.2471489,14.2218885 49.5397021,13.8064238 48,13.6821115 L48,13.1833755 C50.496766,13.1001041 51.0794043,12.9754944 53.4513617,12.3940818 C53.3265532,13.5155688 53.2848511,13.8893978 53.2848511,14.5127435 L53.2848511,26.6861264 C53.2848511,29.7609219 53.8674894,30.5915539 55.9481277,30.6331896 L55.9481277,31.0486543 L48,31.0486543 L48,30.6331896 Z" id="Fill-1"></path>
            <path d="M63.7964681,12.3938736 L63.7964681,13.0172193 C63.7550638,13.806513 63.7133617,14.2636134 63.7133617,14.471197 L63.7550638,15.6346171 C64.2957021,15.0529071 64.7535319,14.5544684 65.1279574,14.2636134 C66.4597447,13.0172193 68.4986809,12.3108996 70.4548085,12.3108996 C72.4106383,12.3108996 74.1999574,12.9755836 75.2404255,14.097368 C76.2388936,15.1775167 76.3222979,15.6346171 76.3222979,19.0413086 L76.3222979,26.7275539 C76.3222979,29.8436877 76.863234,30.5916431 79.0686809,30.6332788 L79.0686809,31.0487435 L71.0371489,31.0487435 L71.0371489,30.6332788 C72.4937447,30.5500074 73.4925106,29.7190781 73.575617,28.38971 L73.6173191,27.22629 L73.6590213,26.8111227 L73.6590213,19.2491896 C73.6590213,16.8393755 73.575617,16.2993011 73.0346809,15.3024238 C72.4106383,14.097368 71.1622553,13.3910483 69.5808511,13.3910483 C68.0825532,13.3910483 66.5845532,13.972461 65.4192766,15.0112714 C64.0877872,16.2576654 63.6716596,17.2548401 63.6716596,19.4154349 L63.6716596,25.8969219 C63.6716596,28.0572193 63.7133617,28.6389294 64.0877872,29.3452491 C64.545617,30.2591524 65.0865532,30.5916431 66.2515319,30.6332788 L66.2515319,31.0487435 L58.3451064,31.0487435 L58.3868085,30.6332788 C60.3423404,30.5916431 60.9669787,29.6361041 60.9669787,26.6445799 L60.9669787,22.0744684 L60.9669787,17.2548401 C60.9669787,14.4295613 60.6339574,13.889487 58.3451064,13.6819033 L58.3451064,13.1831673 C60.8001702,13.1001933 61.4245106,12.9755836 63.7964681,12.3938736" id="Fill-3"></path>
            <path d="M84.9541319,20.2047286 L84.9124298,24.1517918 C84.9124298,26.6445799 85.2037489,28.1401933 86.0360043,29.1790037 C86.8265574,30.1761784 88.3248553,30.8824981 89.989366,30.8824981 C93.9841319,30.8824981 96.8973234,27.22629 96.8973234,22.1990781 C96.8973234,17.3381115 93.9010255,13.3907509 90.1555787,13.3907509 C88.6575787,13.3907509 87.3674936,14.0143941 86.3690255,15.1775167 C85.2868553,16.4655465 84.9541319,17.6703048 84.9541319,20.2047286 L84.9541319,20.2047286 Z M79.5858766,1.21766543 C82.1243447,1.09275836 82.7483872,1.00978439 85.0789404,0.511345725 C85.0789404,0.760565056 85.0372383,0.968446097 85.0372383,1.09275836 C84.9541319,1.59149442 84.9541319,1.88234944 84.9541319,2.09023048 L84.9541319,15.9251747 C85.2868553,15.3021264 85.6198766,14.8453234 85.9111957,14.471197 C86.9099617,13.2664387 88.6992809,12.5598216 90.6965149,12.5598216 C95.8568553,12.5598216 99.7268128,16.6731301 99.7268128,22.1990781 C99.7268128,27.6830929 95.7734511,31.7134275 90.3223872,31.7134275 C88.9906,31.7134275 87.2843872,31.3809368 86.2856213,30.8824981 L85.0789404,30.3007881 C84.8710255,30.1345428 84.5797064,30.0515688 84.3297915,30.0515688 C83.5806426,30.0515688 83.0397064,30.5083717 82.7900894,31.2979628 L82.2908553,31.2563271 L82.2908553,5.37231227 C82.2908553,2.46405948 81.8747277,1.92368773 79.5441745,1.6744684 L79.5858766,1.21766543 Z" id="Fill-5"></path>
            <path d="M113.807209,20.3710037 C113.016655,21.0773234 112.683634,21.2849071 111.767974,21.6590335 C111.10223,21.9495911 110.269974,22.2820818 109.271209,22.6562082 C106.566528,23.6947212 105.52606,24.8581413 105.52606,26.810855 C105.52606,29.0130855 107.19057,30.7995539 109.312613,30.7995539 C112.017889,30.7995539 113.807209,28.5973234 113.807209,25.190632 L113.807209,20.3710037 Z M112.517123,30.3008178 C111.518357,31.1317472 110.103762,31.6301859 108.52206,31.6301859 C105.109932,31.6301859 102.862783,29.7607435 102.862783,26.8521933 C102.862783,25.0657249 103.611932,23.7776952 105.06823,22.9884015 C106.233506,22.3653532 106.774443,22.1991078 109.729038,21.4924907 C113.099762,20.703197 113.765506,19.9971747 113.765506,17.5457249 C113.765506,14.6374721 112.558826,13.266171 109.937251,13.266171 C108.52206,13.266171 107.564996,13.8895167 107.357081,15.0526394 L107.065762,16.2579926 C106.899251,17.1715985 106.191804,17.8365799 105.359549,17.8365799 C104.444187,17.8365799 103.73674,17.1302602 103.73674,16.2163569 C103.73674,13.9727881 106.441421,12.518513 110.395081,12.518513 C112.434017,12.518513 113.807209,12.8926394 114.930485,13.7232714 C116.22057,14.5958364 116.470485,15.4684015 116.470485,18.0857993 L116.470485,27.6834201 C116.470485,29.0130855 116.512187,29.4282528 116.845209,29.9683271 C117.094826,30.4254275 117.635762,30.7995539 118.176698,30.7995539 C119.008953,30.7995539 119.633294,30.3424535 120.257336,29.3452788 L120.75657,29.4698885 C120.049421,31.0071375 119.008953,31.6718216 117.344443,31.6718216 C115.388315,31.6718216 114.098528,30.7162825 113.724102,29.0544238 C113.266272,29.5528625 112.891549,29.9683271 112.517123,30.3008178 L112.517123,30.3008178 Z" id="Fill-7"></path>
            <path d="M122.304374,30.6331896 C124.426715,30.5915539 124.925949,29.9268699 125.009353,26.6447881 L125.009353,21.4510335 L125.009353,5.37222305 C125.009353,2.54724164 124.593226,2.00716729 122.304374,1.71631227 L122.304374,1.21757621 C124.842843,1.13460223 125.466885,1.05133086 127.797438,0.511256506 C127.67263,1.75765056 127.630928,2.09014126 127.630928,2.6718513 L127.630928,26.6861264 C127.630928,29.7192862 128.255268,30.5915539 130.294204,30.6331896 L130.377311,31.0486543 L122.26297,31.0486543 L122.304374,30.6331896 Z" id="Fill-9"></path>
            <path d="M143.327132,20.3710037 C142.536579,21.0773234 142.203557,21.2849071 141.287898,21.6590335 C140.622451,21.9495911 139.789898,22.2820818 138.791132,22.6562082 C136.086451,23.6947212 135.045983,24.8581413 135.045983,26.810855 C135.045983,29.0130855 136.710494,30.7995539 138.832834,30.7995539 C141.537813,30.7995539 143.327132,28.5973234 143.327132,25.190632 L143.327132,20.3710037 Z M142.037047,30.3008178 C141.038281,31.1317472 139.623387,31.6301859 138.042281,31.6301859 C134.629855,31.6301859 132.382409,29.7607435 132.382409,26.8521933 C132.382409,25.0657249 133.131557,23.7776952 134.588153,22.9884015 C135.753132,22.3653532 136.294366,22.1991078 139.248962,21.4924907 C142.619685,20.703197 143.28543,19.9971747 143.28543,17.5457249 C143.28543,14.6374721 142.078749,13.266171 139.457174,13.266171 C138.042281,13.266171 137.085217,13.8895167 136.877004,15.0526394 L136.585685,16.2579926 C136.419174,17.1715985 135.711728,17.8365799 134.879472,17.8365799 C133.964111,17.8365799 133.256664,17.1302602 133.256664,16.2163569 C133.256664,13.9727881 135.961345,12.518513 139.915004,12.518513 C141.95394,12.518513 143.327132,12.8926394 144.450706,13.7232714 C145.740791,14.5958364 145.990409,15.4684015 145.990409,18.0857993 L145.990409,27.6834201 C145.990409,29.0130855 146.032111,29.4282528 146.364834,29.9683271 C146.614749,30.4254275 147.155685,30.7995539 147.696323,30.7995539 C148.528877,30.7995539 149.152919,30.3424535 149.77726,29.3452788 L150.276494,29.4698885 C149.569345,31.0071375 148.528877,31.6718216 146.864366,31.6718216 C144.908238,31.6718216 143.618451,30.7162825 143.244026,29.0544238 C142.786196,29.5528625 142.41177,29.9683271 142.037047,30.3008178 L142.037047,30.3008178 Z" id="Fill-11"></path>
            <path d="M157.383877,12.3938736 L157.383877,13.0172193 C157.342174,13.806513 157.30077,14.2636134 157.30077,14.471197 L157.342174,15.6346171 C157.883111,15.0529071 158.34094,14.5544684 158.715366,14.2636134 C160.047153,13.0172193 162.086089,12.3108996 164.041919,12.3108996 C165.998047,12.3108996 167.787366,12.9755836 168.827536,14.097368 C169.8266,15.1775167 169.909706,15.6346171 169.909706,19.0413086 L169.909706,26.7275539 C169.909706,29.8436877 170.450345,30.5916431 172.656089,30.6332788 L172.656089,31.0487435 L164.624557,31.0487435 L164.624557,30.6332788 C166.081153,30.5500074 167.079919,29.7190781 167.163026,28.38971 L167.204728,27.22629 L167.24643,26.8111227 L167.24643,19.2491896 C167.24643,16.8393755 167.163026,16.2993011 166.622089,15.3024238 C165.998047,14.097368 164.749664,13.3910483 163.16826,13.3910483 C161.67026,13.3910483 160.171962,13.972461 159.006685,15.0112714 C157.675196,16.2576654 157.259068,17.2548401 157.259068,19.4154349 L157.259068,25.8969219 C157.259068,28.0572193 157.30077,28.6389294 157.675196,29.3452491 C158.133026,30.2591524 158.673962,30.5916431 159.83894,30.6332788 L159.83894,31.0487435 L151.932515,31.0487435 L151.973919,30.6332788 C153.930047,30.5916431 154.554089,29.6361041 154.554089,26.6445799 L154.554089,22.0744684 L154.554089,17.2548401 C154.554089,14.4295613 154.221068,13.889487 151.932515,13.6819033 L151.932515,13.1831673 C154.387579,13.1001933 155.011919,12.9755836 157.383877,12.3938736" id="Fill-13"></path>
            <path d="M175.206562,25.2735762 C175.580987,26.852461 175.788902,27.3922379 176.121923,28.0572193 C177.120689,29.8023494 179.159923,30.9654721 181.19886,30.9654721 C183.529413,30.9654721 185.069115,29.6361041 185.069115,27.725026 C185.069115,26.8108253 184.652987,25.9382602 183.862136,25.1489665 C183.279498,24.5672565 182.863668,24.2347658 180.990945,22.9883717 C178.285966,21.1605651 177.620221,20.7034647 176.954179,19.997145 C176.330136,19.3321636 175.955711,18.3352862 175.955711,17.2964758 C175.955711,14.5128327 178.077753,12.5184833 181.032349,12.5184833 C181.989711,12.5184833 182.988477,12.7263643 183.77903,13.1415316 L184.361668,13.3907509 C184.611285,13.4740223 184.819498,13.5572937 184.985711,13.5572937 C185.484945,13.5572937 185.776264,13.2664387 185.776264,12.5598216 L186.234094,12.5598216 L186.525413,18.3352862 L186.067881,18.3766245 C185.859668,17.0056208 185.734562,16.5071822 185.360434,15.7592268 C184.694391,14.3049517 183.029881,13.2664387 181.36537,13.2664387 C179.451243,13.2664387 178.20286,14.4295613 178.20286,16.0914201 C178.20286,17.0472565 178.618689,17.9195242 179.326136,18.5428699 C179.992179,19.1662156 181.406774,20.1217546 183.029881,21.2432416 C183.862136,21.7836134 184.444774,22.1990781 184.736094,22.3653234 C185.193923,22.6978141 185.568349,23.0713457 186.026179,23.4871078 C186.983243,24.4426468 187.441072,25.4398216 187.441072,26.6445799 C187.441072,29.5944684 184.902604,31.7131301 181.448774,31.7131301 C180.158689,31.7131301 179.576051,31.5888178 177.661923,30.6746171 C177.204094,30.5083717 176.912774,30.3840595 176.621455,30.3840595 C175.914009,30.3840595 175.580987,30.7995242 175.539285,31.6717918 L175.16486,31.6717918 L174.790434,25.2735762 L175.206562,25.2735762 Z" id="Fill-15"></path>
        </g>
    </g>
</svg>