<?xml version="1.0" encoding="UTF-8"?>
<svg width="140px" height="80px" viewBox="0 0 140 80" version="1.1" xmlns="http://www.w3.org/2000/svg" xmlns:xlink="http://www.w3.org/1999/xlink">
    <!-- Generator: Sketch 53.2 (72643) - https://sketchapp.com -->
    <title>logo-footer</title>
    <desc>Created with Sketch.</desc>
    <g id="website" stroke="none" stroke-width="1" fill="none" fill-rule="evenodd">
        <g id="logo-footer" fill="#4A4A4A">
            <path d="M-7.63833441e-14,78.6331896 C1.29008511,78.5915539 1.83102128,78.3423346 2.24714894,77.5530409 C2.53846809,76.9713309 2.62157447,76.4312565 2.6632766,74.6447881 L2.6632766,70.0743792 L2.6632766,66.999881 C2.6632766,64.5070929 2.62157447,63.7177993 2.4553617,63.0944535 C2.24714894,62.2218885 1.53970213,61.8064238 -7.63833441e-14,61.6821115 L-7.63833441e-14,61.1833755 C2.49676596,61.1001041 3.07940426,60.9754944 5.4513617,60.3940818 C5.32655319,61.5155688 5.28485106,61.8893978 5.28485106,62.5127435 L5.28485106,74.6861264 C5.28485106,77.7609219 5.86748936,78.5915539 7.94812766,78.6331896 L7.94812766,79.0486543 L-7.63833441e-14,79.0486543 L-7.63833441e-14,78.6331896 Z" id="Fill-1"></path>
            <path d="M15.7964681,60.3938736 L15.7964681,61.0172193 C15.7550638,61.806513 15.7133617,62.2636134 15.7133617,62.471197 L15.7550638,63.6346171 C16.2957021,63.0529071 16.7535319,62.5544684 17.1279574,62.2636134 C18.4597447,61.0172193 20.4986809,60.3108996 22.4548085,60.3108996 C24.4106383,60.3108996 26.1999574,60.9755836 27.2404255,62.097368 C28.2388936,63.1775167 28.3222979,63.6346171 28.3222979,67.0413086 L28.3222979,74.7275539 C28.3222979,77.8436877 28.863234,78.5916431 31.0686809,78.6332788 L31.0686809,79.0487435 L23.0371489,79.0487435 L23.0371489,78.6332788 C24.4937447,78.5500074 25.4925106,77.7190781 25.575617,76.38971 L25.6173191,75.22629 L25.6590213,74.8111227 L25.6590213,67.2491896 C25.6590213,64.8393755 25.575617,64.2993011 25.0346809,63.3024238 C24.4106383,62.097368 23.1622553,61.3910483 21.5808511,61.3910483 C20.0825532,61.3910483 18.5845532,61.972461 17.4192766,63.0112714 C16.0877872,64.2576654 15.6716596,65.2548401 15.6716596,67.4154349 L15.6716596,73.8969219 C15.6716596,76.0572193 15.7133617,76.6389294 16.0877872,77.3452491 C16.545617,78.2591524 17.0865532,78.5916431 18.2515319,78.6332788 L18.2515319,79.0487435 L10.3451064,79.0487435 L10.3868085,78.6332788 C12.3423404,78.5916431 12.9669787,77.6361041 12.9669787,74.6445799 L12.9669787,70.0744684 L12.9669787,65.2548401 C12.9669787,62.4295613 12.6339574,61.889487 10.3451064,61.6819033 L10.3451064,61.1831673 C12.8001702,61.1001933 13.4245106,60.9755836 15.7964681,60.3938736" id="Fill-3"></path>
            <path d="M36.9541319,68.2047286 L36.9124298,72.1517918 C36.9124298,74.6445799 37.2037489,76.1401933 38.0360043,77.1790037 C38.8265574,78.1761784 40.3248553,78.8824981 41.989366,78.8824981 C45.9841319,78.8824981 48.8973234,75.22629 48.8973234,70.1990781 C48.8973234,65.3381115 45.9010255,61.3907509 42.1555787,61.3907509 C40.6575787,61.3907509 39.3674936,62.0143941 38.3690255,63.1775167 C37.2868553,64.4655465 36.9541319,65.6703048 36.9541319,68.2047286 L36.9541319,68.2047286 Z M31.5858766,49.2176654 C34.1243447,49.0927584 34.7483872,49.0097844 37.0789404,48.5113457 C37.0789404,48.7605651 37.0372383,48.9684461 37.0372383,49.0927584 C36.9541319,49.5914944 36.9541319,49.8823494 36.9541319,50.0902305 L36.9541319,63.9251747 C37.2868553,63.3021264 37.6198766,62.8453234 37.9111957,62.471197 C38.9099617,61.2664387 40.6992809,60.5598216 42.6965149,60.5598216 C47.8568553,60.5598216 51.7268128,64.6731301 51.7268128,70.1990781 C51.7268128,75.6830929 47.7734511,79.7134275 42.3223872,79.7134275 C40.9906,79.7134275 39.2843872,79.3809368 38.2856213,78.8824981 L37.0789404,78.3007881 C36.8710255,78.1345428 36.5797064,78.0515688 36.3297915,78.0515688 C35.5806426,78.0515688 35.0397064,78.5083717 34.7900894,79.2979628 L34.2908553,79.2563271 L34.2908553,53.3723123 C34.2908553,50.4640595 33.8747277,49.9236877 31.5441745,49.6744684 L31.5858766,49.2176654 Z" id="Fill-5"></path>
            <path d="M65.8072085,68.3710037 C65.0166553,69.0773234 64.683634,69.2849071 63.7679745,69.6590335 C63.1022298,69.9495911 62.2699745,70.2820818 61.2712085,70.6562082 C58.5665277,71.6947212 57.5260596,72.8581413 57.5260596,74.810855 C57.5260596,77.0130855 59.1905702,78.7995539 61.3126128,78.7995539 C64.0178894,78.7995539 65.8072085,76.5973234 65.8072085,73.190632 L65.8072085,68.3710037 Z M64.5171234,78.3008178 C63.5183574,79.1317472 62.1037617,79.6301859 60.5220596,79.6301859 C57.1099319,79.6301859 54.862783,77.7607435 54.862783,74.8521933 C54.862783,73.0657249 55.6119319,71.7776952 57.0682298,70.9884015 C58.2335064,70.3653532 58.7744426,70.1991078 61.7290383,69.4924907 C65.0997617,68.703197 65.7655064,67.9971747 65.7655064,65.5457249 C65.7655064,62.6374721 64.5588255,61.266171 61.9372511,61.266171 C60.5220596,61.266171 59.5649957,61.8895167 59.3570809,63.0526394 L59.0657617,64.2579926 C58.8992511,65.1715985 58.1918043,65.8365799 57.3595489,65.8365799 C56.4441872,65.8365799 55.7367404,65.1302602 55.7367404,64.2163569 C55.7367404,61.9727881 58.4414213,60.518513 62.3950809,60.518513 C64.434017,60.518513 65.8072085,60.8926394 66.9304851,61.7232714 C68.2205702,62.5958364 68.4704851,63.4684015 68.4704851,66.0857993 L68.4704851,75.6834201 C68.4704851,77.0130855 68.5121872,77.4282528 68.8452085,77.9683271 C69.0948255,78.4254275 69.6357617,78.7995539 70.1766979,78.7995539 C71.0089532,78.7995539 71.6332936,78.3424535 72.2573362,77.3452788 L72.7565702,77.4698885 C72.0494213,79.0071375 71.0089532,79.6718216 69.3444426,79.6718216 C67.3883149,79.6718216 66.0985277,78.7162825 65.7241021,77.0544238 C65.2662723,77.5528625 64.8915489,77.9683271 64.5171234,78.3008178 L64.5171234,78.3008178 Z" id="Fill-7"></path>
            <path d="M74.3043745,78.6331896 C76.4267149,78.5915539 76.9259489,77.9268699 77.0093532,74.6447881 L77.0093532,69.4510335 L77.0093532,53.372223 C77.0093532,50.5472416 76.5932255,50.0071673 74.3043745,49.7163123 L74.3043745,49.2175762 C76.8428426,49.1346022 77.4668851,49.0513309 79.7974383,48.5112565 C79.6726298,49.7576506 79.6309277,50.0901413 79.6309277,50.6718513 L79.6309277,74.6861264 C79.6309277,77.7192862 80.2552681,78.5915539 82.2942043,78.6331896 L82.3773106,79.0486543 L74.2629702,79.0486543 L74.3043745,78.6331896 Z" id="Fill-9"></path>
            <path d="M95.3271319,68.3710037 C94.5365787,69.0773234 94.2035574,69.2849071 93.2878979,69.6590335 C92.6224511,69.9495911 91.7898979,70.2820818 90.7911319,70.6562082 C88.0864511,71.6947212 87.045983,72.8581413 87.045983,74.810855 C87.045983,77.0130855 88.7104936,78.7995539 90.832834,78.7995539 C93.5378128,78.7995539 95.3271319,76.5973234 95.3271319,73.190632 L95.3271319,68.3710037 Z M94.0370468,78.3008178 C93.0382809,79.1317472 91.6233872,79.6301859 90.0422809,79.6301859 C86.6298553,79.6301859 84.3824085,77.7607435 84.3824085,74.8521933 C84.3824085,73.0657249 85.1315574,71.7776952 86.5881532,70.9884015 C87.7531319,70.3653532 88.294366,70.1991078 91.2489617,69.4924907 C94.6196851,68.703197 95.2854298,67.9971747 95.2854298,65.5457249 C95.2854298,62.6374721 94.0787489,61.266171 91.4571745,61.266171 C90.0422809,61.266171 89.085217,61.8895167 88.8770043,63.0526394 L88.5856851,64.2579926 C88.4191745,65.1715985 87.7117277,65.8365799 86.8794723,65.8365799 C85.9641106,65.8365799 85.2566638,65.1302602 85.2566638,64.2163569 C85.2566638,61.9727881 87.9613447,60.518513 91.9150043,60.518513 C93.9539404,60.518513 95.3271319,60.8926394 96.4507064,61.7232714 C97.7407915,62.5958364 97.9904085,63.4684015 97.9904085,66.0857993 L97.9904085,75.6834201 C97.9904085,77.0130855 98.0321106,77.4282528 98.364834,77.9683271 C98.6147489,78.4254275 99.1556851,78.7995539 99.6963234,78.7995539 C100.528877,78.7995539 101.152919,78.3424535 101.77726,77.3452788 L102.276494,77.4698885 C101.569345,79.0071375 100.528877,79.6718216 98.864366,79.6718216 C96.9082383,79.6718216 95.6184511,78.7162825 95.2440255,77.0544238 C94.7861957,77.5528625 94.4117702,77.9683271 94.0370468,78.3008178 L94.0370468,78.3008178 Z" id="Fill-11"></path>
            <path d="M109.383877,60.3938736 L109.383877,61.0172193 C109.342174,61.806513 109.30077,62.2636134 109.30077,62.471197 L109.342174,63.6346171 C109.883111,63.0529071 110.34094,62.5544684 110.715366,62.2636134 C112.047153,61.0172193 114.086089,60.3108996 116.041919,60.3108996 C117.998047,60.3108996 119.787366,60.9755836 120.827536,62.097368 C121.8266,63.1775167 121.909706,63.6346171 121.909706,67.0413086 L121.909706,74.7275539 C121.909706,77.8436877 122.450345,78.5916431 124.656089,78.6332788 L124.656089,79.0487435 L116.624557,79.0487435 L116.624557,78.6332788 C118.081153,78.5500074 119.079919,77.7190781 119.163026,76.38971 L119.204728,75.22629 L119.24643,74.8111227 L119.24643,67.2491896 C119.24643,64.8393755 119.163026,64.2993011 118.622089,63.3024238 C117.998047,62.097368 116.749664,61.3910483 115.16826,61.3910483 C113.67026,61.3910483 112.171962,61.972461 111.006685,63.0112714 C109.675196,64.2576654 109.259068,65.2548401 109.259068,67.4154349 L109.259068,73.8969219 C109.259068,76.0572193 109.30077,76.6389294 109.675196,77.3452491 C110.133026,78.2591524 110.673962,78.5916431 111.83894,78.6332788 L111.83894,79.0487435 L103.932515,79.0487435 L103.973919,78.6332788 C105.930047,78.5916431 106.554089,77.6361041 106.554089,74.6445799 L106.554089,70.0744684 L106.554089,65.2548401 C106.554089,62.4295613 106.221068,61.889487 103.932515,61.6819033 L103.932515,61.1831673 C106.387579,61.1001933 107.011919,60.9755836 109.383877,60.3938736" id="Fill-13"></path>
            <path d="M127.206562,73.2735762 C127.580987,74.852461 127.788902,75.3922379 128.121923,76.0572193 C129.120689,77.8023494 131.159923,78.9654721 133.19886,78.9654721 C135.529413,78.9654721 137.069115,77.6361041 137.069115,75.725026 C137.069115,74.8108253 136.652987,73.9382602 135.862136,73.1489665 C135.279498,72.5672565 134.863668,72.2347658 132.990945,70.9883717 C130.285966,69.1605651 129.620221,68.7034647 128.954179,67.997145 C128.330136,67.3321636 127.955711,66.3352862 127.955711,65.2964758 C127.955711,62.5128327 130.077753,60.5184833 133.032349,60.5184833 C133.989711,60.5184833 134.988477,60.7263643 135.77903,61.1415316 L136.361668,61.3907509 C136.611285,61.4740223 136.819498,61.5572937 136.985711,61.5572937 C137.484945,61.5572937 137.776264,61.2664387 137.776264,60.5598216 L138.234094,60.5598216 L138.525413,66.3352862 L138.067881,66.3766245 C137.859668,65.0056208 137.734562,64.5071822 137.360434,63.7592268 C136.694391,62.3049517 135.029881,61.2664387 133.36537,61.2664387 C131.451243,61.2664387 130.20286,62.4295613 130.20286,64.0914201 C130.20286,65.0472565 130.618689,65.9195242 131.326136,66.5428699 C131.992179,67.1662156 133.406774,68.1217546 135.029881,69.2432416 C135.862136,69.7836134 136.444774,70.1990781 136.736094,70.3653234 C137.193923,70.6978141 137.568349,71.0713457 138.026179,71.4871078 C138.983243,72.4426468 139.441072,73.4398216 139.441072,74.6445799 C139.441072,77.5944684 136.902604,79.7131301 133.448774,79.7131301 C132.158689,79.7131301 131.576051,79.5888178 129.661923,78.6746171 C129.204094,78.5083717 128.912774,78.3840595 128.621455,78.3840595 C127.914009,78.3840595 127.580987,78.7995242 127.539285,79.6717918 L127.16486,79.6717918 L126.790434,73.2735762 L127.206562,73.2735762 Z" id="Fill-15"></path>
            <path d="M68.5913021,1.17204461 C65.1660681,1.17204461 62.3800681,5.14825279 62.3800681,8.56773234 C62.3800681,11.9875093 65.1660681,15.9637175 68.5913021,15.9637175 C72.0165362,15.9637175 74.8025362,11.9875093 74.8025362,8.56773234 C74.8025362,5.14825279 72.0165362,1.17204461 68.5913021,1.17204461 M68.5913021,17.1354647 C63.8596,17.1354647 60.0098979,13.2918959 60.0098979,8.56773234 C60.0098979,3.84356877 63.8596,1.59872116e-14 68.5913021,1.59872116e-14 C73.3230043,1.59872116e-14 77.1727064,3.84356877 77.1727064,8.56773234 C77.1727064,13.2918959 73.3230043,17.1354647 68.5913021,17.1354647" id="Fill-17"></path>
            <path d="M68.5913021,23.8606691 C62.8614298,23.8606691 57.4261532,21.6834201 53.2875149,17.7298141 C53.2875149,17.7298141 54.0545362,17.2507063 54.278834,17.0267658 C54.5031319,16.8025279 54.9255149,16.0203717 54.9255149,16.0203717 C58.621217,19.5504833 63.4747489,22.2910037 68.5913021,22.2910037 C73.7072596,22.2910037 78.5598979,19.5513755 82.2553021,16.0218587 C82.2553021,16.0218587 82.3824936,16.472119 82.8960255,17.0273606 C83.4095574,17.5826022 83.8933021,17.7318959 83.8933021,17.7318959 C79.7546638,21.6840149 74.3205787,23.8606691 68.5913021,23.8606691" id="Fill-19"></path>
            <path d="M81.7199064,34.0548699 C78.1007574,30.8432714 73.4384596,28.278513 68.591183,28.278513 C63.7442043,28.278513 59.0819064,30.8432714 55.4624596,34.0542751 C55.4624596,34.0542751 55.2691404,33.4145725 54.8413957,32.9875093 C54.4136511,32.5598513 53.8885021,32.2862454 53.8885021,32.2862454 C57.9419489,28.6895167 63.1633532,26.7085502 68.591183,26.7085502 C74.0193106,26.7085502 79.2410128,28.6895167 83.2938638,32.2865428 C83.2938638,32.2865428 82.7675234,32.5384387 82.3397787,32.9657993 C81.9114383,33.3931599 81.7199064,34.0548699 81.7199064,34.0548699" id="Fill-21"></path>
        </g>
    </g>
</svg>