<?xml version="1.0" encoding="UTF-8"?>
<svg width="32px" height="35px" viewBox="0 0 32 35" version="1.1" xmlns="http://www.w3.org/2000/svg" xmlns:xlink="http://www.w3.org/1999/xlink">
    <!-- Generator: Sketch 53.2 (72643) - https://sketchapp.com -->
    <title>logo-green-small</title>
    <desc>Created with Sketch.</desc>
    <g id="website" stroke="none" stroke-width="1" fill="none" fill-rule="evenodd">
        <g id="logo-green-small" transform="translate(0.000000, -0.000000)" fill="#103324">
            <path d="M15.854383,1.35834494 C12.4291489,1.35834494 9.64314894,5.34007563 9.64314894,8.76430446 C9.64314894,12.1888311 12.4291489,16.1705618 15.854383,16.1705618 C19.279617,16.1705618 22.065617,12.1888311 22.065617,8.76430446 C22.065617,5.34007563 19.279617,1.35834494 15.854383,1.35834494 M15.854383,17.3439364 C11.1226809,17.3439364 7.27297872,13.4950294 7.27297872,8.76430446 C7.27297872,4.03357955 11.1226809,0.184672491 15.854383,0.184672491 C20.5860851,0.184672491 24.4357872,4.03357955 24.4357872,8.76430446 C24.4357872,13.4950294 20.5860851,17.3439364 15.854383,17.3439364" id="Fill-17"></path>
            <path d="M15.854383,24.0784815 C10.1245106,24.0784815 4.68923404,21.8982084 0.550595745,17.9391114 C0.550595745,17.9391114 1.31761702,17.4593381 1.54191489,17.2350866 C1.76621277,17.0105372 2.18859574,16.2272948 2.18859574,16.2272948 C5.88429787,19.7623092 10.7378298,22.5066359 15.854383,22.5066359 C20.9703404,22.5066359 25.8229787,19.7632026 29.518383,16.2287838 C29.518383,16.2287838 29.6455745,16.6796694 30.1591064,17.2356822 C30.6726383,17.791695 31.156383,17.941196 31.156383,17.941196 C27.0177447,21.898804 21.5836596,24.0784815 15.854383,24.0784815" id="Fill-19"></path>
            <path d="M28.9829872,34.2868408 C25.3638383,31.0707817 20.7015404,28.5024612 15.8542638,28.5024612 C11.0072851,28.5024612 6.34498723,31.0707817 2.72554043,34.2862452 C2.72554043,34.2862452 2.53222128,33.6456541 2.1044766,33.2179978 C1.67673191,32.7897458 1.15158298,32.5157599 1.15158298,32.5157599 C5.20502979,28.9140358 10.426434,26.9303179 15.8542638,26.9303179 C21.2823915,26.9303179 26.5040936,28.9140358 30.5569447,32.5160577 C30.5569447,32.5160577 30.0306043,32.7683034 29.6028596,33.1962576 C29.1745191,33.6242117 28.9829872,34.2868408 28.9829872,34.2868408" id="Fill-21"></path>
        </g>
    </g>
</svg>